<svg width="36" height="36" viewBox="0 0 36 36" fill="none" xmlns="http://www.w3.org/2000/svg">
<path fill-rule="evenodd" clip-rule="evenodd" d="M3 1.5C2.17158 1.5 1.5 2.17158 1.5 3V33C1.5 33.8284 2.17158 34.5 3 34.5H33C33.8284 34.5 34.5 33.8284 34.5 33V3C34.5 2.17158 33.8284 1.5 33 1.5H3Z" fill="#329256"/>
<path fill-rule="evenodd" clip-rule="evenodd" d="M34.5 23.6458L34.3416 23.3292C34.3293 23.3043 34.3161 23.2798 34.3023 23.2558L28.911 13.8208C28.2675 12.6949 27.0702 12 25.7733 12C24.0198 12 22.5194 13.2589 22.2147 14.9857L20.5332 24.514C20.5091 24.6505 20.3906 24.75 20.2519 24.75C20.1131 24.75 19.9942 24.6501 19.9706 24.5133L17.4891 10.2458C17.2131 8.65865 15.8356 7.5 14.2246 7.5C12.6551 7.5 11.3009 8.60117 10.9808 10.1377L8.01269 24.3844L3.93074 21.3231L1.5 19.2975V23.2026L2.03973 23.6523C2.05941 23.6688 2.07951 23.6847 2.1 23.7L6.21268 26.7845C7.97011 28.1026 10.5016 27.147 10.9496 24.9965L13.9177 10.7496C13.948 10.6042 14.0761 10.5 14.2246 10.5C14.3771 10.5 14.5074 10.6096 14.5335 10.7598L17.0148 25.0274C17.2885 26.6012 18.6544 27.75 20.2519 27.75C21.8461 27.75 23.2104 26.6055 23.4874 25.0353L25.169 15.507C25.2207 15.2138 25.4755 15 25.7733 15C25.9936 15 26.1969 15.118 26.3063 15.3093L31.677 24.708L34.5 30.3541V23.6458Z" fill="#163300"/>
</svg>
