<svg width="36" height="36" viewBox="0 0 36 36" fill="none" xmlns="http://www.w3.org/2000/svg">
<path fill-rule="evenodd" clip-rule="evenodd" d="M20.7924 12.1554C19.5428 11.4738 18.0444 11.4236 16.7519 12.0201L10.1142 15.0837C8.52055 15.8191 7.5 17.4142 7.5 19.1695V25.5C7.5 27.1569 8.84315 28.5 10.5 28.5H25.5C27.1569 28.5 28.5 27.1569 28.5 25.5V19.0309C28.5 17.3841 27.6005 15.8689 26.1549 15.0804L20.7924 12.1554Z" fill="#6366F1"/>
<path fill-rule="evenodd" clip-rule="evenodd" d="M30 22.5V14.25H33V22.5H30Z" fill="#6366F1"/>
<path fill-rule="evenodd" clip-rule="evenodd" d="M3.76806 13.0473C3.2938 13.3124 3 13.8133 3 14.3566C3 14.8999 3.2938 15.4008 3.76806 15.6658L17.3746 23.2725C17.8294 23.5267 18.3837 23.5267 18.8385 23.2725L32.4451 15.6658C32.9194 15.4008 33.2131 14.8999 33.2131 14.3566C33.2131 13.8133 32.9194 13.3124 32.4451 13.0473L18.8385 5.44071C18.3837 5.18643 17.8294 5.18643 17.3746 5.44071L3.76806 13.0473Z" fill="#223D0D"/>
</svg>
