<svg width="30" height="30" viewBox="0 0 30 30" fill="none" xmlns="http://www.w3.org/2000/svg">
<path fill-rule="evenodd" clip-rule="evenodd" d="M22.5 6.25C22.1685 6.25 21.8505 6.3817 21.6161 6.61611L6.61611 21.6161C6.3817 21.8505 6.25 22.1685 6.25 22.5V27.5C6.25 28.1904 6.80965 28.75 7.5 28.75H20.3571H27.5C28.1904 28.75 28.75 28.1904 28.75 27.5V20.3571V7.5C28.75 6.80965 28.1904 6.25 27.5 6.25H22.5Z" fill="#9FE870"/>
<path fill-rule="evenodd" clip-rule="evenodd" d="M2.5 1.25C1.80965 1.25 1.25 1.80965 1.25 2.5V22.5C1.25 23.1904 1.80965 23.75 2.5 23.75H15.3571C15.6886 23.75 16.0066 23.6182 16.241 23.3839L23.3839 16.241C23.6182 16.0066 23.75 15.6886 23.75 15.3571V2.5C23.75 1.80965 23.1904 1.25 22.5 1.25H2.5Z" fill="#223D0D"/>
<path fill-rule="evenodd" clip-rule="evenodd" d="M15.3564 14.1069C14.6662 14.1069 14.1064 14.6667 14.1064 15.3569V22.4998C14.1064 23.0054 14.4111 23.4612 14.8782 23.6547C15.3452 23.8482 15.8829 23.7412 16.2404 23.3837L23.3832 16.2409C23.7407 15.8834 23.8477 15.3457 23.6542 14.8787C23.4607 14.4116 23.0049 14.1069 22.4993 14.1069H15.3564Z" fill="#329256"/>
<path fill-rule="evenodd" clip-rule="evenodd" d="M17.8579 7.67871H7.14355V5.17871H17.8579V7.67871Z" fill="#9FE870"/>
<path fill-rule="evenodd" clip-rule="evenodd" d="M17.8579 12.8574H7.14355V10.3574H17.8579V12.8574Z" fill="#9FE870"/>
</svg>
