<svg width="45" height="45" viewBox="0 0 45 45" fill="none" xmlns="http://www.w3.org/2000/svg">
<path fill-rule="evenodd" clip-rule="evenodd" d="M39.7354 7.91588C41.932 10.1126 41.932 13.6741 39.7354 15.8708L19.1851 36.421C18.9233 36.6828 18.5899 36.8613 18.227 36.9338L8.28327 38.9227C7.66853 39.0457 7.03302 38.8531 6.58973 38.4098C6.14644 37.9666 5.95401 37.331 6.07697 36.7163L8.06571 26.7727C8.13829 26.4097 8.31672 26.0763 8.57847 25.8145L29.1287 5.26422C31.3255 3.06753 34.8871 3.06753 37.0836 5.26422L39.7354 7.91588Z" fill="#223D0D"/>
<path fill-rule="evenodd" clip-rule="evenodd" d="M7.86963 27.7565L8.06637 26.7727C8.13897 26.4097 8.3174 26.0763 8.57915 25.8146L9.90509 24.4888L20.5117 35.0953L19.1857 36.4213C18.9239 36.683 18.5906 36.8613 18.2276 36.9341L17.2439 37.1308L7.86963 27.7565Z" fill="#9FE870"/>
<path fill-rule="evenodd" clip-rule="evenodd" d="M36.4205 19.1855L39.0721 16.5339L28.4656 5.92725L25.814 8.57891L36.4205 19.1855Z" fill="#9FE870"/>
<path fill-rule="evenodd" clip-rule="evenodd" d="M15.2083 32.4437L33.7698 13.8821L31.1181 11.2305L12.5566 29.792L15.2083 32.4437Z" fill="#9FE870"/>
</svg>
