<svg width="24" height="24" viewBox="0 0 24 24" fill="none" xmlns="http://www.w3.org/2000/svg">
<path fill-rule="evenodd" clip-rule="evenodd" d="M13 16.5V12H11V16.5H13Z" fill="#223D0D"/>
<path fill-rule="evenodd" clip-rule="evenodd" d="M5.20719 14.7069L8.20719 11.7069L6.79297 10.2927L3.79297 13.2927L5.20719 14.7069Z" fill="#223D0D"/>
<path fill-rule="evenodd" clip-rule="evenodd" d="M18.793 14.7069L15.793 11.7069L17.2072 10.2927L20.2072 13.2927L18.793 14.7069Z" fill="#223D0D"/>
<path fill-rule="evenodd" clip-rule="evenodd" d="M3.73574 6.823C3.73574 6.823 3.73608 6.82337 2.99966 7.4999C2.26324 8.17643 2.26368 8.1769 2.26368 8.1769L2.26556 8.17894L2.2694 8.18309L2.28162 8.19621C2.29178 8.20706 2.30593 8.22207 2.32398 8.24098C2.36007 8.27878 2.41177 8.33217 2.47824 8.39891C2.61112 8.53234 2.80346 8.71956 3.04858 8.94263C3.53783 9.38784 4.2427 9.98074 5.10965 10.5748C6.82169 11.748 9.2734 12.9999 11.9997 12.9999C14.726 12.9999 17.1777 11.748 18.8897 10.5748C19.7567 9.98074 20.4615 9.38784 20.9508 8.94263C21.1959 8.71956 21.3882 8.53234 21.5211 8.39891C21.5876 8.33217 21.6393 8.27878 21.6754 8.24098C21.6934 8.22207 21.7076 8.20706 21.7177 8.19621L21.73 8.18309L21.7338 8.17894L21.7352 8.17748C21.7352 8.17748 21.7361 8.17643 20.9997 7.4999C20.2633 6.82337 20.2636 6.823 20.2636 6.823L20.2576 6.82941L20.2288 6.8599C20.2019 6.88802 20.1601 6.93131 20.104 6.9876C19.9918 7.10027 19.8232 7.26461 19.6047 7.46342C19.1667 7.86196 18.534 8.39406 17.7592 8.92499C16.1877 10.0018 14.1394 10.9999 11.9997 10.9999C9.85993 10.9999 7.81164 10.0018 6.24018 8.92499C5.46537 8.39406 4.83262 7.86196 4.39467 7.46342C4.1762 7.26461 4.00756 7.10027 3.89535 6.9876C3.83928 6.93131 3.79741 6.88802 3.77057 6.8599L3.74171 6.82941L3.73574 6.823Z" fill="#223D0D"/>
</svg>
