<svg width="24" height="24" viewBox="0 0 24 24" fill="none" xmlns="http://www.w3.org/2000/svg">
<path d="M9 17.5C8.44772 17.5 8 17.9477 8 18.5V19.5C8 21.1569 9.34315 22.5 11 22.5H13C14.6569 22.5 16 21.1569 16 19.5V18.5C16 17.9477 15.5523 17.5 15 17.5H9Z" fill="#9FE870"/>
<path d="M10 6.5C9.44772 6.5 9 6.05228 9 5.5V4.5C9 2.84315 10.3431 1.5 12 1.5C13.6569 1.5 15 2.84315 15 4.5V5.5C15 6.05228 14.5523 6.5 14 6.5H10Z" fill="#223D0D"/>
<path d="M10.3041 4.5C7.90673 4.5 5.84677 6.20157 5.39404 8.55577L3.518 18.3112C3.46167 18.6041 3.53905 18.9069 3.72902 19.1368C3.91899 19.3668 4.20171 19.5 4.50001 19.5H19.5C19.7983 19.5 20.081 19.3668 20.271 19.1368C20.461 18.9069 20.5383 18.6041 20.482 18.3112L18.606 8.55576C18.1532 6.20156 16.0933 4.5 13.6959 4.5H10.3041Z" fill="#223D0D"/>
<path fill-rule="evenodd" clip-rule="evenodd" d="M22 19.6924H2V17.6924H22V19.6924Z" fill="#223D0D"/>
</svg>
