<svg width="24" height="24" viewBox="0 0 24 24" fill="none" xmlns="http://www.w3.org/2000/svg">
<path fill-rule="evenodd" clip-rule="evenodd" d="M19 10C18.4477 10 18 10.4477 18 11V17C18 17.5523 18.4477 18 19 18H20C21.6569 18 23 16.6569 23 15V13C23 11.3431 21.6569 10 20 10H19Z" fill="#163300"/>
<path fill-rule="evenodd" clip-rule="evenodd" d="M11 7V2H13V7H11Z" fill="#163300"/>
<path fill-rule="evenodd" clip-rule="evenodd" d="M4 10C2.34315 10 1 11.3431 1 13V15C1 16.6569 2.34315 18 4 18H5C5.55228 18 6 17.5523 6 17V11C6 10.4477 5.55228 10 5 10H4Z" fill="#163300"/>
<path fill-rule="evenodd" clip-rule="evenodd" d="M9 6C6.23858 6 4 8.23858 4 11V17C4 19.7614 6.23858 22 9 22H15C17.7614 22 20 19.7614 20 17V11C20 8.23858 17.7614 6 15 6H9Z" fill="#6366F1"/>
<path fill-rule="evenodd" clip-rule="evenodd" d="M11.4415 17C10.1502 17 9.00382 17.8263 8.59548 19.0513L8.05132 20.6838C7.94967 20.9887 8.00081 21.3239 8.18877 21.5847C8.37672 21.8455 8.67856 22 9.00001 22H15C15.3215 22 15.6233 21.8455 15.8112 21.5847C15.9992 21.3239 16.0503 20.9887 15.9487 20.6838L15.4045 19.0513C14.9962 17.8263 13.8498 17 12.5585 17H11.4415Z" fill="#163300"/>
<path fill-rule="evenodd" clip-rule="evenodd" d="M16.816 11.9481L13.816 12.9481L13.1836 11.0508L16.1836 10.0508L16.816 11.9481Z" fill="#163300"/>
<path fill-rule="evenodd" clip-rule="evenodd" d="M7.18359 11.9481L10.1836 12.9481L10.816 11.0508L7.81605 10.0508L7.18359 11.9481Z" fill="#163300"/>
</svg>
