<svg width="24" height="24" viewBox="0 0 24 24" fill="none" xmlns="http://www.w3.org/2000/svg">
<g clip-path="url(#clip0_687_11221)">
<path fill-rule="evenodd" clip-rule="evenodd" d="M5.63932 1C7.34702 1 9.03126 1.3976 10.5587 2.1613L12.4472 3.10557C12.786 3.27496 13 3.62123 13 4V18C13 18.3466 12.8205 18.6684 12.5257 18.8507C12.2309 19.0329 11.8628 19.0494 11.5528 18.8944L9.66424 17.9502C8.41454 17.3253 7.03653 17 5.63932 17H4C3.44771 17 3 16.5523 3 16V2C3 1.44772 3.44771 1 4 1H5.63932Z" fill="#9FE870"/>
<path fill-rule="evenodd" clip-rule="evenodd" d="M18.3607 1C16.653 1 14.9687 1.3976 13.4413 2.1613L11.5528 3.10557C11.214 3.27496 11 3.62123 11 4V18C11 18.3466 11.1795 18.6684 11.4743 18.8507C11.7691 19.0329 12.1372 19.0494 12.4472 18.8944L14.3358 17.9502C15.5855 17.3253 16.9635 17 18.3607 17H20C20.5523 17 21 16.5523 21 16V2C21 1.44772 20.5523 1 20 1H18.3607Z" fill="#223D0D"/>
<path fill-rule="evenodd" clip-rule="evenodd" d="M5.63932 20H4V18H5.63932C7.34702 18 9.03126 18.3976 10.5587 19.1613L12 19.882L13.4413 19.1613C14.9687 18.3976 16.653 18 18.3607 18H20V20H18.3607C16.9635 20 15.5855 20.3253 14.3358 20.9502L12.4472 21.8944C12.1657 22.0352 11.8343 22.0352 11.5528 21.8944L9.66424 20.9502C8.41454 20.3253 7.03653 20 5.63932 20Z" fill="#329256"/>
</g>
<defs>
<clipPath id="clip0_687_11221">
<rect width="24" height="24" fill="white"/>
</clipPath>
</defs>
</svg>
