<svg width="24" height="24" viewBox="0 0 24 24" fill="none" xmlns="http://www.w3.org/2000/svg">
<path fill-rule="evenodd" clip-rule="evenodd" d="M16.9093 3C14.6499 3 12.8184 4.83157 12.8184 7.09091V10.3636C12.8184 10.8155 13.1847 11.1818 13.6365 11.1818H16.9093C19.1686 11.1818 21.0002 9.35025 21.0002 7.09091C21.0002 4.83157 19.1686 3 16.9093 3Z" fill="#163300"/>
<path fill-rule="evenodd" clip-rule="evenodd" d="M16.9093 20.9999C14.6499 20.9999 12.8184 19.1684 12.8184 16.909V13.6363C12.8184 13.1844 13.1847 12.8181 13.6365 12.8181H16.9093C19.1686 12.8181 21.0002 14.6497 21.0002 16.909C21.0002 19.1684 19.1686 20.9999 16.9093 20.9999Z" fill="#163300"/>
<path fill-rule="evenodd" clip-rule="evenodd" d="M7.09091 3C9.35025 3 11.1818 4.83157 11.1818 7.09091V10.3636C11.1818 10.8155 10.8155 11.1818 10.3636 11.1818H7.09091C4.83157 11.1818 3 9.35025 3 7.09091C3 4.83157 4.83157 3 7.09091 3Z" fill="#163300"/>
<path fill-rule="evenodd" clip-rule="evenodd" d="M7.09091 20.9999C9.35025 20.9999 11.1818 19.1684 11.1818 16.909V13.6363C11.1818 13.1844 10.8155 12.8181 10.3636 12.8181H7.09091C4.83157 12.8181 3 14.6497 3 16.909C3 19.1684 4.83157 20.9999 7.09091 20.9999Z" fill="#163300"/>
</svg>
