<svg width="24" height="24" viewBox="0 0 24 24" fill="none" xmlns="http://www.w3.org/2000/svg">
<path fill-rule="evenodd" clip-rule="evenodd" d="M2 17V14H4V17C4 17.5523 4.44772 18 5 18H19C19.5523 18 20 17.5523 20 17V14H22V17C22 18.6569 20.6569 20 19 20H5C3.34315 20 2 18.6569 2 17Z" fill="#F5AB2E"/>
<path fill-rule="evenodd" clip-rule="evenodd" d="M11 16V5H13V16H11Z" fill="#D88800"/>
<path fill-rule="evenodd" clip-rule="evenodd" d="M11.9996 16.9997C11.6958 16.9997 11.4085 16.8616 11.2187 16.6244L7.21875 11.6244L8.78048 10.375L11.9996 14.3989L15.2187 10.375L16.7805 11.6244L12.7805 16.6244C12.5907 16.8616 12.3034 16.9997 11.9996 16.9997Z" fill="#D88800"/>
</svg>
