<svg width="24" height="24" viewBox="0 0 24 24" fill="none" xmlns="http://www.w3.org/2000/svg">
<g clip-path="url(#clip0_794_19328)">
<path d="M5 1.80859C3.34315 1.80859 2 3.15174 2 4.80859V18.8086C2 20.4655 3.34315 21.8086 5 21.8086H19C20.6569 21.8086 22 20.4655 22 18.8086V4.80859C22 3.15174 20.6569 1.80859 19 1.80859H5Z" fill="#9FE870"/>
<path d="M12.0004 6.42432C9.91402 6.42432 8.22266 8.11569 8.22266 10.2021C8.22266 12.2885 9.91402 13.9798 12.0004 13.9798C14.0868 13.9798 15.7782 12.2885 15.7782 10.2021C15.7782 8.11569 14.0868 6.42432 12.0004 6.42432Z" fill="#163300"/>
<path fill-rule="evenodd" clip-rule="evenodd" d="M12.0002 15.6465C10.2561 15.6465 8.70636 16.1766 7.59405 16.9976L6.40625 15.3886C7.88927 14.2938 9.86308 13.6465 12.0002 13.6465C14.1372 13.6465 16.111 14.2938 17.5941 15.3886L16.4063 16.9976C15.294 16.1766 13.7442 15.6465 12.0002 15.6465Z" fill="#163300"/>
</g>
<defs>
<clipPath id="clip0_794_19328">
<rect width="24" height="24" fill="white"/>
</clipPath>
</defs>
</svg>
