<svg width="24" height="24" viewBox="0 0 24 24" fill="none" xmlns="http://www.w3.org/2000/svg">
<path fill-rule="evenodd" clip-rule="evenodd" d="M1 12C1 18.0751 5.92487 23 12 23C18.0751 23 23 18.0751 23 12C23 5.92487 18.0751 1 12 1C5.92487 1 1 5.92487 1 12Z" fill="#223D0D"/>
<path fill-rule="evenodd" clip-rule="evenodd" d="M13 22.9552V11H11V22.9552C11.3294 22.9848 11.6629 23 12 23C12.3371 23 12.6706 22.9848 13 22.9552Z" fill="#9FE870"/>
<path fill-rule="evenodd" clip-rule="evenodd" d="M12.0001 11.9142L9.20718 14.7071L7.79297 13.2929L11.293 9.7929C11.6835 9.40237 12.3167 9.40237 12.7072 9.7929L16.2072 13.2929L14.793 14.7071L12.0001 11.9142Z" fill="#9FE870"/>
</svg>
