<svg width="24" height="24" viewBox="0 0 24 24" fill="none" xmlns="http://www.w3.org/2000/svg">
<g clip-path="url(#clip0_687_11441)">
<path fill-rule="evenodd" clip-rule="evenodd" d="M13 16.8076V21.8076H11V16.8076H13Z" fill="#9FE870"/>
<path fill-rule="evenodd" clip-rule="evenodd" d="M12.7735 16.1743L17.2735 21.6743L15.7256 22.9408L11.2256 17.4408L12.7735 16.1743Z" fill="#9FE870"/>
<path fill-rule="evenodd" clip-rule="evenodd" d="M11.2256 16.1743L6.72559 21.6743L8.27351 22.9408L12.7735 17.4408L11.2256 16.1743Z" fill="#9FE870"/>
<path fill-rule="evenodd" clip-rule="evenodd" d="M4 1.30762C3.44772 1.30762 3 1.75534 3 2.30762V16.8076C3 17.3599 3.44772 17.8076 4 17.8076H20C20.5523 17.8076 21 17.3599 21 16.8076V2.30762C21 1.75534 20.5523 1.30762 20 1.30762H4Z" fill="#223D0D"/>
<path fill-rule="evenodd" clip-rule="evenodd" d="M22 3.30762H2V1.30762H22V3.30762Z" fill="#329256"/>
<path fill-rule="evenodd" clip-rule="evenodd" d="M22 17.8076H2V15.8076H22V17.8076Z" fill="#329256"/>
<path fill-rule="evenodd" clip-rule="evenodd" d="M11.3915 6.07616C10.9149 5.7526 10.3492 5.74691 9.91174 5.92535C9.47713 6.10264 9 6.54916 9 7.24194V12.3734C9 13.0662 9.47713 13.5127 9.91174 13.69C10.3492 13.8684 10.9149 13.8627 11.3915 13.5392L15.1701 10.9734C15.5517 10.7143 15.8 10.2886 15.8 9.80768C15.8 9.32673 15.5517 8.90105 15.1701 8.6419L11.3915 6.07616Z" fill="#329256"/>
</g>
<defs>
<clipPath id="clip0_687_11441">
<rect width="24" height="24" fill="white"/>
</clipPath>
</defs>
</svg>
