<svg width="20" height="20" viewBox="0 0 20 20" fill="none" xmlns="http://www.w3.org/2000/svg">
<path d="M10 1.66797C11.9891 1.66797 13.8968 2.45814 15.3033 3.86467C16.7098 5.27119 17.5 7.17885 17.5 9.16797C17.5 11.7296 16.1033 13.8263 14.6317 15.3305C13.8964 16.0739 13.0941 16.7478 12.235 17.3438L11.88 17.5855L11.7133 17.6963L11.3992 17.8963L11.1192 18.0671L10.7725 18.2688C10.5372 18.4031 10.2709 18.4738 10 18.4738C9.72906 18.4738 9.4628 18.4031 9.2275 18.2688L8.88083 18.0671L8.4475 17.8005L8.2875 17.6963L7.94583 17.4688C7.01903 16.8417 6.15575 16.1256 5.36833 15.3305C3.89667 13.8255 2.5 11.7296 2.5 9.16797C2.5 7.17885 3.29018 5.27119 4.6967 3.86467C6.10322 2.45814 8.01088 1.66797 10 1.66797ZM10 6.66797C9.6717 6.66797 9.34661 6.73263 9.04329 6.85827C8.73998 6.98391 8.46438 7.16806 8.23223 7.4002C8.00009 7.63235 7.81594 7.90795 7.6903 8.21126C7.56466 8.51457 7.5 8.83966 7.5 9.16797C7.5 9.49627 7.56466 9.82136 7.6903 10.1247C7.81594 10.428 8.00009 10.7036 8.23223 10.9357C8.46438 11.1679 8.73998 11.352 9.04329 11.4777C9.34661 11.6033 9.6717 11.668 10 11.668C10.663 11.668 11.2989 11.4046 11.7678 10.9357C12.2366 10.4669 12.5 9.83101 12.5 9.16797C12.5 8.50493 12.2366 7.86904 11.7678 7.4002C11.2989 6.93136 10.663 6.66797 10 6.66797Z" fill="black"/>
</svg>
