<svg width="26" height="21" viewBox="0 0 26 21" fill="none" xmlns="http://www.w3.org/2000/svg">
<g clip-path="url(#clip0_362_7465)">
<path d="M4.72671 20.8971V19.5072C4.72671 18.9742 4.41451 18.6268 3.87937 18.6268C3.61186 18.6268 3.322 18.7195 3.12131 19.0207C2.96531 18.7658 2.74238 18.6268 2.40794 18.6268C2.18491 18.6268 1.96208 18.6963 1.78363 18.9511V18.6732H1.31543V20.8971H1.78363V19.6693C1.78363 19.2755 1.98432 19.0901 2.29652 19.0901C2.60852 19.0901 2.76473 19.2986 2.76473 19.6693V20.8971H3.23293V19.6693C3.23293 19.2755 3.45576 19.0901 3.74562 19.0901C4.05782 19.0901 4.21382 19.2986 4.21382 19.6693V20.8971H4.72671ZM11.6605 18.6732H10.9025V18.0014H10.4343V18.6732H10.0107V19.1132H10.4342V20.1326C10.4342 20.6423 10.6349 20.9434 11.17 20.9434C11.3707 20.9434 11.5936 20.874 11.7498 20.7813L11.6159 20.3643C11.4821 20.4569 11.3261 20.4801 11.2146 20.4801C10.9917 20.4801 10.9025 20.3411 10.9025 20.1094V19.1132H11.6605V18.6732ZM15.6291 18.6267C15.3616 18.6267 15.1833 18.7658 15.0718 18.9511V18.6732H14.6036V20.8971H15.0718V19.6461C15.0718 19.2755 15.2278 19.067 15.5176 19.067C15.6068 19.067 15.7183 19.0902 15.8075 19.1133L15.9412 18.6501C15.8521 18.6268 15.7183 18.6268 15.6291 18.6268M9.63167 18.8586C9.40864 18.6964 9.09654 18.627 8.76209 18.627C8.22706 18.627 7.87038 18.9049 7.87038 19.3451C7.87038 19.7158 8.13789 19.9242 8.60609 19.9937L8.82902 20.017C9.0743 20.0632 9.20806 20.1327 9.20806 20.2486C9.20806 20.4107 9.02971 20.5266 8.71751 20.5266C8.4053 20.5266 8.16013 20.4107 8.00403 20.2949L7.7811 20.6655C8.02637 20.8508 8.36082 20.9435 8.69516 20.9435C9.31947 20.9435 9.67626 20.6424 9.67626 20.2254C9.67626 19.8316 9.3864 19.623 8.94044 19.5536L8.71751 19.5304C8.51682 19.5072 8.36082 19.4609 8.36082 19.322C8.36082 19.1598 8.51682 19.0671 8.76209 19.0671C9.02971 19.0671 9.29723 19.1829 9.43098 19.2524L9.63167 18.8586ZM22.0726 18.627C21.805 18.627 21.6266 18.7659 21.5151 18.9512V18.6733H21.0469V20.8972H21.5151V19.6462C21.5151 19.2756 21.6712 19.0671 21.961 19.0671C22.0502 19.0671 22.1617 19.0903 22.2509 19.1134L22.3847 18.6502C22.2955 18.627 22.1617 18.627 22.0726 18.627ZM16.0973 19.7852C16.0973 20.457 16.5432 20.9435 17.2344 20.9435C17.5465 20.9435 17.7695 20.8741 17.9924 20.6888L17.7695 20.2949C17.5911 20.4339 17.4128 20.5033 17.2121 20.5033C16.8331 20.5033 16.5655 20.2254 16.5655 19.7852C16.5655 19.3683 16.8331 19.0902 17.2121 19.0671C17.4128 19.0671 17.5911 19.1365 17.7695 19.2756L17.9924 18.8818C17.7695 18.6964 17.5465 18.627 17.2344 18.627C16.5432 18.627 16.0973 19.1134 16.0973 19.7852ZM20.4227 19.7852V18.6733H19.9545V18.9512C19.7984 18.7428 19.5755 18.627 19.2856 18.627C18.6836 18.627 18.2154 19.1134 18.2154 19.7852C18.2154 20.457 18.6836 20.9435 19.2856 20.9435C19.5977 20.9435 19.8207 20.8277 19.9545 20.6192V20.8972H20.4227V19.7852ZM18.7059 19.7852C18.7059 19.3914 18.9511 19.0671 19.3524 19.0671C19.7315 19.0671 19.9991 19.3683 19.9991 19.7852C19.9991 20.1791 19.7315 20.5033 19.3524 20.5033C18.9511 20.4801 18.7059 20.1791 18.7059 19.7852ZM13.1098 18.627C12.4855 18.627 12.0395 19.0902 12.0395 19.7852C12.0395 20.4802 12.4854 20.9435 13.132 20.9435C13.4441 20.9435 13.7563 20.8508 14.0016 20.6424L13.7786 20.2949C13.6002 20.4339 13.3773 20.5266 13.1544 20.5266C12.8645 20.5266 12.5746 20.3876 12.5077 19.9936H14.0908V19.8084C14.1131 19.0902 13.7118 18.627 13.1098 18.627ZM13.1097 19.0439C13.3994 19.0439 13.6002 19.2293 13.6447 19.5768H12.53C12.5745 19.2756 12.7752 19.0439 13.1097 19.0439ZM24.7256 19.7852V17.793H24.2574V18.9512C24.1013 18.7428 23.8784 18.627 23.5885 18.627C22.9865 18.627 22.5183 19.1134 22.5183 19.7852C22.5183 20.457 22.9865 20.9435 23.5885 20.9435C23.9007 20.9435 24.1236 20.8277 24.2574 20.6192V20.8972H24.7256V19.7852ZM23.0089 19.7852C23.0089 19.3914 23.254 19.0671 23.6554 19.0671C24.0345 19.0671 24.302 19.3683 24.302 19.7852C24.302 20.1791 24.0345 20.5033 23.6554 20.5033C23.254 20.4801 23.0089 20.1791 23.0089 19.7852ZM7.35738 19.7852V18.6733H6.88918V18.9512C6.73308 18.7428 6.51015 18.627 6.22029 18.627C5.61833 18.627 5.15013 19.1134 5.15013 19.7852C5.15013 20.457 5.61833 20.9435 6.22029 20.9435C6.53249 20.9435 6.75542 20.8277 6.88918 20.6192V20.8972H7.35738V19.7852ZM5.61833 19.7852C5.61833 19.3914 5.8636 19.0671 6.26488 19.0671C6.64391 19.0671 6.91152 19.3683 6.91152 19.7852C6.91152 20.1791 6.64391 20.5033 6.26488 20.5033C5.8636 20.4801 5.61833 20.1791 5.61833 19.7852Z" fill="black"/>
<path d="M9.47559 1.78516H16.4986V14.8971H9.47559V1.78516Z" fill="#FF5F00"/>
<path d="M9.92154 8.33974C9.92154 5.6757 11.1255 3.31272 12.9759 1.78373C11.616 0.671789 9.8993 0 8.02648 0C3.58952 0 0 3.72966 0 8.33974C0 12.9498 3.58952 16.6795 8.02638 16.6795C9.89919 16.6795 11.6159 16.0077 12.9759 14.8956C11.1255 13.3899 9.92154 11.0038 9.92154 8.33974Z" fill="#EB001B"/>
<path d="M25.9742 8.33974C25.9742 12.9497 22.3847 16.6795 17.9478 16.6795C16.075 16.6795 14.3583 16.0077 12.9983 14.8956C14.8711 13.3668 16.0528 11.0038 16.0528 8.33974C16.0528 5.6757 14.8488 3.31272 12.9983 1.78373C14.3582 0.671789 16.075 0 17.9478 0C22.3847 0 25.9742 3.75288 25.9742 8.33974Z" fill="#F79E1B"/>
</g>
<defs>
<clipPath id="clip0_362_7465">
<rect width="26" height="21" fill="white"/>
</clipPath>
</defs>
</svg>
