<svg width="75" height="75" viewBox="0 0 75 75" fill="none" xmlns="http://www.w3.org/2000/svg">
<path fill-rule="evenodd" clip-rule="evenodd" d="M17.6746 14.8413C17.7588 14.1334 18.007 13.4548 18.3995 12.8596C18.792 12.2644 19.3179 11.769 19.9354 11.4127C20.5529 11.0564 21.2451 10.8491 21.9568 10.8072C22.6685 10.7654 23.3801 10.8901 24.0352 11.1715C27.3464 12.5871 34.7671 15.9513 44.1832 21.3858C53.6024 26.8235 60.228 31.5721 63.1058 33.7266C65.5627 35.5692 65.5689 39.2234 63.1089 41.0724C60.2591 43.2144 53.7146 47.9006 44.1832 53.4068C34.6423 58.9131 27.309 62.2368 24.0289 63.6336C21.2041 64.8402 18.0426 63.01 17.6746 59.9638C17.2444 56.4032 16.4399 48.3184 16.4399 37.3995C16.4399 26.4868 17.2412 18.4051 17.6746 14.8413Z" fill="white"/>
</svg>
