<svg width="24" height="24" viewBox="0 0 24 24" fill="none" xmlns="http://www.w3.org/2000/svg">
<g clip-path="url(#clip0_687_10994)">
<path fill-rule="evenodd" clip-rule="evenodd" d="M5 23.3076C4.4477 23.3076 4 22.8599 4 22.3076L4 2.30762C4 1.75532 4.4477 1.30762 5 1.30762L17 1.30762C18.6568 1.30762 20 2.65072 20 4.30762L20 20.3076C20 21.9645 18.6568 23.3076 17 23.3076L5 23.3076Z" fill="#223D0D"/>
<path fill-rule="evenodd" clip-rule="evenodd" d="M5 7.30762C4.4477 7.30762 4 6.85992 4 6.30762L4 2.30762C4 1.75532 4.4477 1.30762 5 1.30762L17 1.30762C18.6568 1.30762 20 2.65072 20 4.30762C20 5.96452 18.6568 7.30762 17 7.30762L5 7.30762Z" fill="#9FE870"/>
<path fill-rule="evenodd" clip-rule="evenodd" d="M8 20.3076C7.4477 20.3076 7 19.8599 7 19.3076L7 15.3076C7 14.7553 7.4477 14.3076 8 14.3076L16 14.3076C16.5523 14.3076 17 14.7553 17 15.3076L17 19.3076C17 19.8599 16.5523 20.3076 16 20.3076L8 20.3076Z" fill="#329256"/>
</g>
<defs>
<clipPath id="clip0_687_10994">
<rect width="24" height="24" fill="white"/>
</clipPath>
</defs>
</svg>
