<svg width="24" height="24" viewBox="0 0 24 24" fill="none" xmlns="http://www.w3.org/2000/svg">
<path fill-rule="evenodd" clip-rule="evenodd" d="M5 0.808594C4.44772 0.808594 4 1.25631 4 1.80859V21.8086C4 22.3609 4.44772 22.8086 5 22.8086H17C18.6569 22.8086 20 21.4655 20 19.8086V3.80859C20 2.15174 18.6569 0.808594 17 0.808594H5Z" fill="#329256"/>
<path fill-rule="evenodd" clip-rule="evenodd" d="M8 3.80859C7.44772 3.80859 7 4.25631 7 4.80859V8.80859C7 9.36087 7.44772 9.80859 8 9.80859H16C16.5523 9.80859 17 9.36087 17 8.80859V4.80859C17 4.25631 16.5523 3.80859 16 3.80859H8Z" fill="#9FE870"/>
</svg>
