<svg width="24" height="24" viewBox="0 0 24 24" fill="none" xmlns="http://www.w3.org/2000/svg">
<path fill-rule="evenodd" clip-rule="evenodd" d="M13 16.5V21.5H11V16.5H13Z" fill="#9FE870"/>
<path fill-rule="evenodd" clip-rule="evenodd" d="M12.7735 15.8672L17.2735 21.3672L15.7256 22.6337L11.2256 17.1337L12.7735 15.8672Z" fill="#9FE870"/>
<path fill-rule="evenodd" clip-rule="evenodd" d="M11.2265 15.8672L6.7265 21.3672L8.27441 22.6337L12.7744 17.1337L11.2265 15.8672Z" fill="#9FE870"/>
<path fill-rule="evenodd" clip-rule="evenodd" d="M4 1C3.44772 1 3 1.44772 3 2V16.5C3 17.0523 3.44772 17.5 4 17.5H20C20.5523 17.5 21 17.0523 21 16.5V2C21 1.44772 20.5523 1 20 1H4Z" fill="#223D0D"/>
<path fill-rule="evenodd" clip-rule="evenodd" d="M22 3H2V1H22V3Z" fill="#329256"/>
<path fill-rule="evenodd" clip-rule="evenodd" d="M22 17.5H2V15.5H22V17.5Z" fill="#329256"/>
<path fill-rule="evenodd" clip-rule="evenodd" d="M11.4573 10.0432L14.7527 6.33594L16.2475 7.66467L12.2475 12.1646C12.0645 12.3705 11.8047 12.4917 11.5294 12.4998C11.2542 12.5079 10.9877 12.4021 10.793 12.2074L8.79297 10.2074L10.2072 8.7932L11.4573 10.0432Z" fill="#329256"/>
</svg>
