<svg width="24" height="24" viewBox="0 0 24 24" fill="none" xmlns="http://www.w3.org/2000/svg">
<path d="M6.4 4.5C5.07452 4.5 4 5.61929 4 7V14.5C4 15.8807 5.07452 17 6.4 17H15.3578L18.7562 19.3601C19.0018 19.5305 19.3174 19.5464 19.5775 19.4014C19.8376 19.2564 20 18.974 20 18.6667V7C20 5.61929 18.9255 4.5 17.6 4.5H6.4Z" fill="#9FE870"/>
<path d="M7.94032 8.96582C7.04346 8.96582 6.31641 9.69287 6.31641 10.5897C6.31641 11.4866 7.04346 12.2137 7.94032 12.2137C8.83719 12.2137 9.56424 11.4866 9.56424 10.5897C9.56424 9.69287 8.83719 8.96582 7.94032 8.96582Z" fill="#163300"/>
<path d="M11.9999 8.96582C11.103 8.96582 10.376 9.69287 10.376 10.5897C10.376 11.4866 11.103 12.2137 11.9999 12.2137C12.8968 12.2137 13.6238 11.4866 13.6238 10.5897C13.6238 9.69287 12.8968 8.96582 11.9999 8.96582Z" fill="#163300"/>
<path d="M16.0597 8.96582C15.1628 8.96582 14.4358 9.69287 14.4358 10.5897C14.4358 11.4866 15.1628 12.2137 16.0597 12.2137C16.9566 12.2137 17.6836 11.4866 17.6836 10.5897C17.6836 9.69287 16.9566 8.96582 16.0597 8.96582Z" fill="#163300"/>
</svg>
