<svg width="24" height="24" viewBox="0 0 24 24" fill="none" xmlns="http://www.w3.org/2000/svg">
<path fill-rule="evenodd" clip-rule="evenodd" d="M3.1347 3.88672C2.64509 3.88672 2.24817 4.28364 2.24817 4.77325V18.9578C2.24817 19.4474 2.64509 19.8443 3.1347 19.8443H9.34043H19.0923C19.5819 19.8443 19.9788 19.4474 19.9788 18.9578V9.64918V4.77325C19.9788 4.28364 19.5819 3.88672 19.0923 3.88672H3.1347Z" fill="#0004BA"/>
<path fill-rule="evenodd" clip-rule="evenodd" d="M16.4327 10.9785C13.495 10.9785 11.1135 13.36 11.1135 16.2977C11.1135 19.2354 13.495 21.6169 16.4327 21.6169C19.3704 21.6169 21.7519 19.2354 21.7519 16.2977C21.7519 13.36 19.3704 10.9785 16.4327 10.9785Z" fill="#6366F1"/>
<path fill-rule="evenodd" clip-rule="evenodd" d="M15.1028 16.7416V14.082H16.8759V15.8551H18.649V17.6282H15.9894C15.4997 17.6282 15.1028 17.2313 15.1028 16.7416Z" fill="#0004BA"/>
<path fill-rule="evenodd" clip-rule="evenodd" d="M19.9788 9.20591V4.77325C19.9788 4.28364 19.5819 3.88672 19.0923 3.88672H3.1347C2.64509 3.88672 2.24817 4.28364 2.24817 4.77325V9.20591H3.1347H19.0923H19.9788Z" fill="#6366F1"/>
<path fill-rule="evenodd" clip-rule="evenodd" d="M5.79407 6.10286V3H7.56713V6.10286H5.79407Z" fill="#0004BA"/>
<path fill-rule="evenodd" clip-rule="evenodd" d="M14.6594 6.10286V3H16.4325V6.10286H14.6594Z" fill="#0004BA"/>
</svg>
