<svg width="20" height="20" viewBox="0 0 20 20" fill="none" xmlns="http://www.w3.org/2000/svg">
<path d="M10 1.66797C8.90567 1.66797 7.82204 1.88352 6.81099 2.30231C5.79994 2.7211 4.88129 3.33492 4.10746 4.10875C2.54466 5.67155 1.66669 7.79116 1.66669 10.0013C1.66669 12.2114 2.54466 14.3311 4.10746 15.8939C4.88129 16.6677 5.79994 17.2815 6.81099 17.7003C7.82204 18.1191 8.90567 18.3346 10 18.3346C12.2102 18.3346 14.3298 17.4567 15.8926 15.8939C17.4554 14.3311 18.3334 12.2114 18.3334 10.0013C18.3334 8.90695 18.1178 7.82332 17.699 6.81227C17.2802 5.80123 16.6664 4.88257 15.8926 4.10875C15.1188 3.33492 14.2001 2.7211 13.189 2.30231C12.178 1.88352 11.0944 1.66797 10 1.66797ZM13.5 13.5013L9.16669 10.8346V5.83464H10.4167V10.168L14.1667 12.418L13.5 13.5013Z" fill="black"/>
</svg>
