<svg width="24" height="24" viewBox="0 0 24 24" fill="none" xmlns="http://www.w3.org/2000/svg">
<path d="M11.0625 2C7.37844 2 4.41885 4.94784 4.1456 8.61965C2.31933 9.07555 1 10.778 1 12.75C1 15.0599 2.81022 17 5.125 17H17.625C18.2396 17 18.8244 16.8609 19.3494 16.6118C21.5006 15.7594 23 13.6109 23 11.125C23 7.91766 20.4902 5.25 17.3125 5.25C17.1676 5.25 17.0237 5.25562 16.8813 5.26668C15.6511 3.31194 13.514 2 11.0625 2Z" fill="#223D0D"/>
<path fill-rule="evenodd" clip-rule="evenodd" d="M13 12V20H11V12H13Z" fill="#9FE870"/>
<path fill-rule="evenodd" clip-rule="evenodd" d="M11.293 11.2929C11.6835 10.9024 12.3167 10.9024 12.7072 11.2929L15.7072 14.2929L14.293 15.7071L12.0001 13.4142L9.70718 15.7071L8.29297 14.2929L11.293 11.2929Z" fill="#9FE870"/>
</svg>
