<svg width="24" height="24" viewBox="0 0 24 24" fill="none" xmlns="http://www.w3.org/2000/svg">
<path fill-rule="evenodd" clip-rule="evenodd" d="M6.92276 2.69238C5.98813 2.69238 5.23047 3.45005 5.23047 4.38468V19.6153C5.23047 20.55 5.98813 21.3076 6.92276 21.3076H12.8458C13.0702 21.3076 13.2855 21.2184 13.4441 21.0598L18.521 15.9829C18.6796 15.8243 18.7688 15.609 18.7688 15.3846V4.38468C18.7688 3.45005 18.0112 2.69238 17.0765 2.69238H6.92276Z" fill="#163300"/>
<path fill-rule="evenodd" clip-rule="evenodd" d="M14.1155 7.76944H9.88477V6.07715H14.1155V7.76944Z" fill="#9FE870"/>
<path fill-rule="evenodd" clip-rule="evenodd" d="M15.3844 12.8466H8.61523V11.1543H15.3844V12.8466Z" fill="#9FE870"/>
<path fill-rule="evenodd" clip-rule="evenodd" d="M13.6923 14.5391C12.7576 14.5391 12 15.2967 12 16.2314V20.4621C12 20.8044 12.2061 21.1129 12.5223 21.2439C12.8385 21.3748 13.2025 21.3024 13.4445 21.0604L18.5213 15.9835C18.7633 15.7415 18.8358 15.3776 18.7048 15.0614C18.5738 14.7452 18.2653 14.5391 17.923 14.5391H13.6923Z" fill="#9FE870"/>
</svg>
