<svg width="24" height="24" viewBox="0 0 24 24" fill="none" xmlns="http://www.w3.org/2000/svg">
<path fill-rule="evenodd" clip-rule="evenodd" d="M4.56414 5.43555C4.15347 5.43555 3.82056 5.76846 3.82056 6.17913V19.5636C3.82056 19.9743 4.15347 20.3072 4.56414 20.3072H19.4358C19.8465 20.3072 20.1794 19.9743 20.1794 19.5636V6.17913C20.1794 5.76846 19.8465 5.43555 19.4358 5.43555H4.56414Z" fill="#329256"/>
<path fill-rule="evenodd" clip-rule="evenodd" d="M20.1794 10.6406V6.17913C20.1794 5.76846 19.8465 5.43555 19.4358 5.43555H4.56414C4.15347 5.43555 3.82056 5.76846 3.82056 6.17913V10.6406H4.56414H19.4358H20.1794Z" fill="#9FE870"/>
<path fill-rule="evenodd" clip-rule="evenodd" d="M8.28209 4.69238V7.66671H6.79492V4.69238H8.28209Z" fill="#329256"/>
<path fill-rule="evenodd" clip-rule="evenodd" d="M17.2052 4.69238V7.66671H15.718V4.69238H17.2052Z" fill="#329256"/>
</svg>
