<svg width="30" height="30" viewBox="0 0 30 30" fill="none" xmlns="http://www.w3.org/2000/svg">
<path fill-rule="evenodd" clip-rule="evenodd" d="M26.3637 24.2834L23.529 21.4487L21.7612 23.2165L24.596 26.0511L26.3637 24.2834Z" fill="#163300"/>
<path fill-rule="evenodd" clip-rule="evenodd" d="M3.63623 24.2834L6.47094 21.4487L8.23871 23.2165L5.40399 26.0511L3.63623 24.2834Z" fill="#163300"/>
<path fill-rule="evenodd" clip-rule="evenodd" d="M15 3.75C8.7868 3.75 3.75 8.7868 3.75 15C3.75 21.2132 8.7868 26.25 15 26.25C21.2132 26.25 26.25 21.2132 26.25 15C26.25 8.7868 21.2132 3.75 15 3.75Z" fill="#9FE870"/>
<path fill-rule="evenodd" clip-rule="evenodd" d="M16.25 11.7356V8.75H13.75V15C13.75 15.5179 14.0694 15.9821 14.553 16.1674C15.0366 16.3525 15.5844 16.2204 15.9302 15.8349L19.0552 12.3528L17.1948 10.683L16.25 11.7356Z" fill="#329256"/>
<path fill-rule="evenodd" clip-rule="evenodd" d="M26.3637 6.15844L23.529 3.32373L21.7612 5.09151L24.596 7.92621L26.3637 6.15844Z" fill="#163300"/>
<path fill-rule="evenodd" clip-rule="evenodd" d="M3.63623 6.15844L6.47094 3.32373L8.23871 5.09151L5.40399 7.92621L3.63623 6.15844Z" fill="#163300"/>
</svg>
