<svg width="24" height="24" viewBox="0 0 24 24" fill="none" xmlns="http://www.w3.org/2000/svg">
<path fill-rule="evenodd" clip-rule="evenodd" d="M2 11C1.44772 11 1 11.4477 1 12V20C1 20.5523 1.44772 21 2 21H6C6.55228 21 7 20.5523 7 20V12C7 11.4477 6.55228 11 6 11H2Z" fill="#329256"/>
<path fill-rule="evenodd" clip-rule="evenodd" d="M10 6C9.44772 6 9 6.44772 9 7V20C9 20.5523 9.44772 21 10 21H14C14.5523 21 15 20.5523 15 20V7C15 6.44772 14.5523 6 14 6H10Z" fill="#9FE870"/>
<path fill-rule="evenodd" clip-rule="evenodd" d="M18 3C17.4477 3 17 3.44772 17 4V20C17 20.5523 17.4477 21 18 21H22C22.5523 21 23 20.5523 23 20V4C23 3.44772 22.5523 3 22 3H18Z" fill="#163300"/>
</svg>
