<svg width="30" height="30" viewBox="0 0 30 30" fill="none" xmlns="http://www.w3.org/2000/svg">
<path d="M26.1551 5.00149C29.391 8.14036 29.6021 13.1198 26.7789 16.4994C26.7216 16.5988 26.6504 16.6907 26.5665 16.7721L15.8703 27.1472C15.3854 27.6176 14.6146 27.6176 14.1296 27.1472L3.43352 16.7721C3.34965 16.6907 3.27839 16.5988 3.22106 16.4994C0.397838 13.1198 0.608932 8.14035 3.84491 5.00149C6.88438 2.05325 11.5771 1.71258 15 3.9716C18.4229 1.71258 23.1156 2.05325 26.1551 5.00149Z" fill="#9FE870"/>
<path fill-rule="evenodd" clip-rule="evenodd" d="M22.5 11.25C22.5 9.86929 21.3807 8.75 20 8.75V6.25C22.7614 6.25 25 8.48857 25 11.25H22.5Z" fill="#163300"/>
</svg>
