<svg width="24" height="24" viewBox="0 0 24 24" fill="none" xmlns="http://www.w3.org/2000/svg">
<path fill-rule="evenodd" clip-rule="evenodd" d="M10.6065 7C7.84503 7 5.60645 9.23858 5.60645 12C5.60645 14.7614 7.84503 17 10.6065 17C12.4559 17 14.0722 15.9964 14.9382 14.4993L16.6694 15.5007C15.4606 17.5904 13.1987 19 10.6065 19C6.74046 19 3.60645 15.866 3.60645 12C3.60645 8.13401 6.74046 5 10.6065 5C14.4725 5 17.6065 8.13401 17.6065 12H15.6065C15.6065 9.23858 13.3679 7 10.6065 7Z" fill="#163300"/>
<path fill-rule="evenodd" clip-rule="evenodd" d="M16.1616 11.0235L17.9182 8.29785L19.5993 9.3813L17.301 12.9475C17.0018 13.4117 16.3829 13.5455 15.9187 13.2464L12.3525 10.948L13.436 9.26687L16.1616 11.0235Z" fill="#163300"/>
</svg>
