<svg width="36" height="36" viewBox="0 0 36 36" fill="none" xmlns="http://www.w3.org/2000/svg">
<path fill-rule="evenodd" clip-rule="evenodd" d="M7.5 7.5C5.01472 7.5 3 9.51472 3 12V24C3 26.4853 5.01472 28.5 7.5 28.5H21.75C24.2353 28.5 26.25 26.4853 26.25 24V23.3082L30.8909 25.3707C31.3548 25.5769 31.8917 25.5343 32.3174 25.2577C32.7431 24.981 33 24.5077 33 24V12C33 11.4922 32.7431 11.0189 32.3174 10.7423C31.8917 10.4656 31.3548 10.4231 30.8909 10.6293L26.25 12.6919V12C26.25 9.51472 24.2353 7.5 21.75 7.5H7.5Z" fill="#A347FF"/>
<path fill-rule="evenodd" clip-rule="evenodd" d="M9 12H15V15H9V12Z" fill="#163300"/>
</svg>
