<svg width="24" height="24" viewBox="0 0 24 24" fill="none" xmlns="http://www.w3.org/2000/svg">
<g clip-path="url(#clip0_687_11661)">
<path d="M5 2.30762C3.34315 2.30762 2 3.65077 2 5.30762V19.3076C2 20.9645 3.34315 22.3076 5 22.3076H19C20.6569 22.3076 22 20.9645 22 19.3076V5.30762C22 3.65077 20.6569 2.30762 19 2.30762H5Z" fill="#223D0D"/>
<path d="M12.0004 6.9231C9.91402 6.9231 8.22266 8.61447 8.22266 10.7009C8.22266 12.7873 9.91402 14.4786 12.0004 14.4786C14.0868 14.4786 15.7782 12.7873 15.7782 10.7009C15.7782 8.61447 14.0868 6.9231 12.0004 6.9231Z" fill="#9FE870"/>
<path fill-rule="evenodd" clip-rule="evenodd" d="M12.0002 16.1455C10.2561 16.1455 8.70636 16.6756 7.59405 17.4966L6.40625 15.8876C7.88927 14.7928 9.86308 14.1455 12.0002 14.1455C14.1372 14.1455 16.111 14.7928 17.5941 15.8876L16.4063 17.4966C15.294 16.6756 13.7442 16.1455 12.0002 16.1455Z" fill="#9FE870"/>
</g>
<defs>
<clipPath id="clip0_687_11661">
<rect width="24" height="24" fill="white"/>
</clipPath>
</defs>
</svg>
