<svg width="24" height="24" viewBox="0 0 24 24" fill="none" xmlns="http://www.w3.org/2000/svg">
<path d="M5.20275 3.69238C4.78564 3.69238 4.44751 4.03052 4.44751 4.44762V19.5524C4.44751 19.9695 4.78564 20.3076 5.20275 20.3076H7.46846C7.88556 20.3076 8.2237 19.9695 8.2237 19.5524V4.44762C8.2237 4.03052 7.88556 3.69238 7.46846 3.69238H5.20275Z" fill="#223D0D"/>
<path d="M9.35656 4.44727C8.93945 4.44727 8.60132 4.7854 8.60132 5.2025V12.7549C8.60132 13.172 8.93945 13.5101 9.35656 13.5101H18.797C19.0873 13.5101 19.352 13.3437 19.4777 13.0821C19.6035 12.8204 19.5681 12.5098 19.3868 12.2831L16.7432 8.97869L19.3868 5.6743C19.5681 5.4476 19.6035 5.13701 19.4777 4.87534C19.352 4.61368 19.0873 4.44727 18.797 4.44727H9.35656Z" fill="#DD4040"/>
</svg>
