<svg width="24" height="24" viewBox="0 0 24 24" fill="none" xmlns="http://www.w3.org/2000/svg">
<g clip-path="url(#clip0_687_13387)">
<mask id="mask0_687_13387" style="mask-type:luminance" maskUnits="userSpaceOnUse" x="2" y="4" width="20" height="17">
<path d="M5.625 19.1078L3.5 9.33281L7.75 11.4578L12 5.50781L16.25 11.4578L20.5 9.33281L18.375 19.1078H5.625Z" fill="white" stroke="white" stroke-width="2" stroke-linejoin="round"/>
<path d="M11.9998 16.1324C12.4507 16.1324 12.8831 15.9533 13.2019 15.6345C13.5207 15.3157 13.6998 14.8833 13.6998 14.4324C13.6998 13.9816 13.5207 13.5492 13.2019 13.2303C12.8831 12.9115 12.4507 12.7324 11.9998 12.7324C11.5489 12.7324 11.1165 12.9115 10.7977 13.2303C10.4789 13.5492 10.2998 13.9816 10.2998 14.4324C10.2998 14.8833 10.4789 15.3157 10.7977 15.6345C11.1165 15.9533 11.5489 16.1324 11.9998 16.1324Z" fill="black" stroke="black" stroke-width="2" stroke-linejoin="round"/>
</mask>
<g mask="url(#mask0_687_13387)">
<path d="M1.7998 2.10742H22.1998V22.5074H1.7998V2.10742Z" fill="#163300"/>
</g>
</g>
<defs>
<clipPath id="clip0_687_13387">
<rect width="24" height="24" fill="white"/>
</clipPath>
</defs>
</svg>
