<svg width="17" height="17" viewBox="0 0 17 17" fill="none" xmlns="http://www.w3.org/2000/svg">
<path d="M9.00081 2.57555C8.86798 2.44276 8.68784 2.36816 8.50002 2.36816C8.31219 2.36816 8.13206 2.44276 7.99923 2.57555L3.99219 6.5826C3.92453 6.64794 3.87057 6.7261 3.83345 6.81252C3.79632 6.89894 3.77678 6.99189 3.77597 7.08594C3.77515 7.17999 3.79307 7.27326 3.82869 7.36031C3.8643 7.44737 3.9169 7.52645 3.98341 7.59296C4.04991 7.65947 4.129 7.71206 4.21605 7.74768C4.3031 7.78329 4.39638 7.80122 4.49043 7.8004C4.58448 7.79958 4.67743 7.78004 4.76385 7.74292C4.85027 7.7058 4.92843 7.65183 4.99377 7.58418L7.79169 4.78626V14.1667C7.79169 14.3546 7.86631 14.5348 7.99915 14.6676C8.13199 14.8004 8.31216 14.8751 8.50002 14.8751C8.68788 14.8751 8.86805 14.8004 9.00089 14.6676C9.13372 14.5348 9.20835 14.3546 9.20835 14.1667V4.78626L12.0063 7.58418C12.1399 7.71321 12.3188 7.7846 12.5045 7.78299C12.6902 7.78138 12.8679 7.70688 12.9992 7.57555C13.1306 7.44422 13.2051 7.26656 13.2067 7.08084C13.2083 6.89512 13.1369 6.71619 13.0079 6.5826L9.00081 2.57555Z" fill="#9A9A9A"/>
</svg>
