<svg width="23" height="27" viewBox="0 0 23 27" fill="none" xmlns="http://www.w3.org/2000/svg">
<path fill-rule="evenodd" clip-rule="evenodd" d="M19.3715 16.7935C21.2857 18.8187 22.6082 21.5649 22.9894 24.6624C23.0158 24.8958 22.9926 25.1321 22.9213 25.3559C22.8501 25.5797 22.7324 25.7859 22.576 25.9611C22.4195 26.1364 22.2279 26.2766 22.0135 26.3726C21.7992 26.4687 21.567 26.5184 21.3321 26.5185H1.66824C1.43321 26.5189 1.20075 26.4695 0.986163 26.3737C0.771571 26.2778 0.579701 26.1376 0.423163 25.9623C0.266626 25.7869 0.148967 25.5805 0.0779195 25.3564C0.00687218 25.1324 -0.0159542 24.8958 0.0109407 24.6624C0.39212 21.5632 1.71465 18.8187 3.62883 16.7935C4.03818 17.1714 4.46577 17.526 4.92484 17.8426C3.20456 19.6142 1.9997 22.0687 1.65664 24.8645L21.3321 24.8612C20.994 22.067 19.7908 19.6142 18.0739 17.8426C18.531 17.5245 18.9647 17.1739 19.3715 16.7935ZM11.4994 0.00170898C14.6482 0.00170898 16.4713 3.31631 18.7583 4.36538C18.3732 4.81521 17.8953 5.17649 17.3576 5.4245C16.8198 5.6725 16.2348 5.80136 15.6426 5.80226C15.1487 5.80226 14.683 5.70283 14.2438 5.54207C13.6672 6.26649 12.9352 6.85212 12.1019 7.25572C11.2686 7.65933 10.3553 7.87058 9.42939 7.87389C7.11745 7.87389 3.21451 8.28822 4.05144 4.72005C6.52911 3.31631 8.20464 0.00170898 11.4994 0.00170898Z" fill="#329256"/>
<path fill-rule="evenodd" clip-rule="evenodd" d="M11.5011 1.65896C15.1555 1.65896 18.1303 4.63216 18.1303 8.28817C18.1303 11.9442 15.1555 14.9174 11.5011 14.9174C7.84346 14.9174 4.87192 11.9442 4.87192 8.28817C4.87192 4.63216 7.84346 1.65896 11.5011 1.65896ZM11.5011 16.5747C13.6991 16.574 15.8067 15.7003 17.3604 14.1456C18.9141 12.591 19.7866 10.4828 19.786 8.28485C19.7853 6.08691 18.9116 3.97926 17.3569 2.42555C15.8023 0.871836 13.6941 -0.000658942 11.4962 3.73395e-07C9.29822 0.000659689 7.19056 0.87442 5.63685 2.42906C4.08314 3.98371 3.21064 6.09189 3.2113 8.28982C3.21196 10.4878 4.08572 12.5954 5.64037 14.1491C7.19501 15.7028 9.30319 16.5753 11.5011 16.5747Z" fill="#329256"/>
</svg>
