<svg width="33" height="19" viewBox="0 0 33 19" fill="none" xmlns="http://www.w3.org/2000/svg">
<path d="M16.5 0L16.1701 0.0990667L2.9954 4.46635L0 5.44347L1.74433 5.99616V15.1207C1.11511 15.4826 0.690354 16.1427 0.690354 16.9144C0.690354 17.4675 0.912442 17.998 1.30776 18.3891C1.70308 18.7803 2.23924 19 2.79831 19C3.35737 19 3.89354 18.7803 4.28886 18.3891C4.68417 17.998 4.90626 17.4675 4.90626 16.9144C4.90626 16.1427 4.48151 15.4826 3.85228 15.1207V6.7157L5.96024 7.39874V12.7431C5.96024 13.5982 6.48722 14.3074 7.11329 14.7975C7.73935 15.2845 8.51718 15.6286 9.45101 15.9373C11.3208 16.5525 13.785 16.9144 16.5 16.9144C19.215 16.9144 21.6792 16.5536 23.549 15.9362C24.4828 15.6286 25.2607 15.2845 25.8867 14.7964C26.5128 14.3074 27.0398 13.5982 27.0398 12.7431V7.39874L30.0046 6.42058L33 5.44347L30.0035 4.46531L16.8288 0.0990667L16.5 0ZM16.5 2.18469L26.381 5.44347L16.5 8.70225L6.61897 5.44347L16.5 2.18469ZM8.06819 8.11619L16.1712 10.7879L16.5 10.8859L16.8299 10.7868L24.9318 8.11515V12.7431C24.9318 12.7536 24.936 12.8745 24.6019 13.1342C24.2689 13.3949 23.6713 13.7234 22.8892 13.982C21.3272 14.4961 19.0243 14.8288 16.5 14.8288C13.9757 14.8288 11.6728 14.4971 10.1097 13.981C9.3298 13.7234 8.73114 13.3939 8.39808 13.1342C8.06292 12.8735 8.06819 12.7536 8.06819 12.7431V8.11619Z" fill="#329256"/>
</svg>
