<svg width="13" height="13" viewBox="0 0 13 13" fill="none" xmlns="http://www.w3.org/2000/svg">
<path d="M6.50188 0C7.48375 0.000567295 8.45275 0.223441 9.33615 0.651895C10.2195 1.08035 10.9944 1.70326 11.6026 2.47387C12.2108 3.24449 12.6364 4.1428 12.8477 5.10139C13.059 6.05999 13.0503 7.05397 12.8224 8.00874C12.5945 8.96351 12.1532 9.85429 11.5317 10.6142C10.9103 11.3741 10.1247 11.9835 9.23395 12.3965C8.34323 12.8095 7.37051 13.0155 6.38877 12.999C5.40704 12.9825 4.44179 12.7439 3.56547 12.3012L3.46713 12.2484L0.504708 12.9877C0.447696 13.0021 0.388252 13.0039 0.330478 12.993C0.272704 12.9821 0.217977 12.9589 0.170072 12.9248C0.122167 12.8907 0.0822251 12.8467 0.0530032 12.7957C0.0237813 12.7447 0.00597477 12.688 0.000812676 12.6294V12.5628L0.0121911 12.4954L0.75178 9.53463L0.700577 9.43713C0.32958 8.70484 0.100689 7.90892 0.0260076 7.09146L0.00568912 6.78108L0 6.49996C0 4.77606 0.685018 3.12277 1.90436 1.90379C3.1237 0.684816 4.77747 0 6.50188 0ZM6.90825 7.31246H4.47004L4.3969 7.31896C4.3032 7.33592 4.21844 7.38523 4.1574 7.45829C4.09637 7.53135 4.06293 7.62351 4.06293 7.7187C4.06293 7.81389 4.09637 7.90606 4.1574 7.97912C4.21844 8.05218 4.3032 8.10149 4.3969 8.11845L4.47004 8.12495H6.90825L6.98139 8.11845C7.07509 8.10149 7.15985 8.05218 7.22089 7.97912C7.28192 7.90606 7.31536 7.81389 7.31536 7.7187C7.31536 7.62351 7.28192 7.53135 7.22089 7.45829C7.15985 7.38523 7.07509 7.33592 6.98139 7.31896L6.90825 7.31246ZM8.53372 4.87497H4.47004L4.3969 4.88147C4.3032 4.89843 4.21844 4.94774 4.1574 5.0208C4.09637 5.09386 4.06293 5.18603 4.06293 5.28122C4.06293 5.37641 4.09637 5.46858 4.1574 5.54163C4.21844 5.61469 4.3032 5.66401 4.3969 5.68097L4.47004 5.68747H8.53372L8.60686 5.68097C8.70056 5.66401 8.78532 5.61469 8.84636 5.54163C8.90739 5.46858 8.94083 5.37641 8.94083 5.28122C8.94083 5.18603 8.90739 5.09386 8.84636 5.0208C8.78532 4.94774 8.70056 4.89843 8.60686 4.88147L8.53372 4.87497Z" fill="#9A9A9A"/>
</svg>
