<svg width="24" height="24" viewBox="0 0 24 24" fill="none" xmlns="http://www.w3.org/2000/svg">
<path d="M6 0.5C4.34315 0.5 3 1.84315 3 3.5V19.5C3 21.1569 4.34315 22.5 6 22.5H18C19.6569 22.5 21 21.1569 21 19.5V8.41987C21 7.5441 20.6173 6.71205 19.9524 6.1421L14.2125 1.22223C13.6688 0.75618 12.9763 0.5 12.2602 0.5H6Z" fill="#223D0D"/>
<path fill-rule="evenodd" clip-rule="evenodd" d="M21 8.45852V8.41987C21 7.5441 20.6173 6.71205 19.9524 6.1421L14.2125 1.22223C13.6688 0.75618 12.9763 0.5 12.2602 0.5H12.1707C12.0602 0.81278 12 1.14936 12 1.5V5.5C12 7.15685 13.3431 8.5 15 8.5H20.5C20.6704 8.5 20.8374 8.4858 21 8.45852Z" fill="#9FE870"/>
<path fill-rule="evenodd" clip-rule="evenodd" d="M11 17.5V9.5H13V17.5H11Z" fill="#9FE870"/>
<path fill-rule="evenodd" clip-rule="evenodd" d="M16 14.5H8V12.5H16V14.5Z" fill="#9FE870"/>
</svg>
