<svg width="24" height="24" viewBox="0 0 24 24" fill="none" xmlns="http://www.w3.org/2000/svg">
<path d="M19.1839 7.30493L16.2189 4.33793C14.1919 2.30793 13.1789 1.29493 12.0899 1.53493C11.0009 1.77493 10.5089 3.12193 9.52188 5.81493L8.85388 7.63793C8.59088 8.35593 8.45888 8.71493 8.22188 8.99293C8.11593 9.11793 7.99503 9.22943 7.86188 9.32493C7.56588 9.53793 7.19788 9.63893 6.46188 9.84193C4.80188 10.2999 3.97088 10.5289 3.65788 11.0719C3.52257 11.307 3.45217 11.5737 3.45388 11.8449C3.45788 12.4719 4.06688 13.0809 5.28388 14.2999L6.69988 15.7159L2.22388 20.1959C2.08748 20.3405 2.01281 20.5326 2.01571 20.7313C2.0186 20.9301 2.09885 21.1199 2.2394 21.2604C2.37995 21.401 2.56974 21.4812 2.76849 21.4841C2.96724 21.487 3.15929 21.4123 3.30388 21.2759L7.77888 16.7959L9.24488 18.2639C10.4709 19.4899 11.0839 20.1039 11.7149 20.1039C11.9799 20.1039 12.2409 20.0359 12.4719 19.9039C13.0199 19.5909 13.2499 18.7549 13.7109 17.0819C13.9129 16.3469 14.0139 15.9799 14.2259 15.6829C14.3192 15.5536 14.4265 15.4363 14.5479 15.3309C14.8229 15.0929 15.1799 14.9589 15.8929 14.6909L17.7369 13.9979C20.4009 12.9979 21.7329 12.4969 21.9669 11.4119C22.2019 10.3259 21.1969 9.31893 19.1839 7.30493Z" fill="#223D0D"/>
</svg>
