<svg width="30" height="30" viewBox="0 0 30 30" fill="none" xmlns="http://www.w3.org/2000/svg">
<path d="M6.50362 4.61548C5.98224 4.61548 5.55957 5.03815 5.55957 5.55953L5.55957 24.4405C5.55957 24.9619 5.98224 25.3845 6.50362 25.3845L9.33576 25.3845C9.85714 25.3845 10.2798 24.9619 10.2798 24.4405L10.2798 5.55953C10.2798 5.03815 9.85714 4.61548 9.33576 4.61548L6.50362 4.61548Z" fill="#223D0D"/>
<path d="M11.696 5.55957C11.1746 5.55957 10.752 5.98224 10.752 6.50362L10.752 15.9441C10.752 16.4655 11.1746 16.8881 11.696 16.8881L23.4966 16.8881C23.8595 16.8881 24.1903 16.6802 24.3475 16.3531C24.5047 16.0259 24.4605 15.6377 24.2338 15.3543L20.9294 11.2239L24.2338 7.09337C24.4605 6.80999 24.5047 6.42175 24.3475 6.09467C24.1903 5.76759 23.8595 5.55957 23.4966 5.55957L11.696 5.55957Z" fill="#DD4040"/>
</svg>
