<svg width="24" height="24" viewBox="0 0 24 24" fill="none" xmlns="http://www.w3.org/2000/svg">
<path d="M19 19.5C20.933 19.5 22.5 17.933 22.5 16L22.5 5C22.5 3.067 20.933 1.5 19 1.5L8 1.5C6.067 1.5 4.5 3.067 4.5 5L4.5 16C4.5 17.933 6.067 19.5 8 19.5L19 19.5Z" fill="#223D0D"/>
<path d="M4.79289 22.2071C5.18339 22.5976 5.81659 22.5976 6.20709 22.2071L15.2071 13.2071C15.3601 13.0541 15.4593 12.8556 15.4899 12.6414L15.9899 9.1414C16.0345 8.8298 15.9297 8.5155 15.7071 8.2929C15.4845 8.0703 15.1702 7.9655 14.8586 8.0101L11.3586 8.5101C11.1444 8.5406 10.9459 8.6399 10.7929 8.7929L1.79289 17.7929C1.40239 18.1834 1.40239 18.8166 1.79289 19.2071L4.79289 22.2071Z" fill="#FAFAFA"/>
</svg>
