<svg width="24" height="24" viewBox="0 0 24 24" fill="none" xmlns="http://www.w3.org/2000/svg">
<path fill-rule="evenodd" clip-rule="evenodd" d="M2 2.80859C1.44772 2.80859 1 3.25631 1 3.80859V19.8086C1 20.3609 1.44772 20.8086 2 20.8086H9.5H19.5C20.0523 20.8086 20.5 20.3609 20.5 19.8086V7.80859V6.43359C20.5 5.88131 20.0523 5.43359 19.5 5.43359H9.2268L7.72473 3.24306C7.53826 2.97113 7.22973 2.80859 6.9 2.80859H2Z" fill="#223D0D"/>
<path fill-rule="evenodd" clip-rule="evenodd" d="M16.5 8.80859C12.9101 8.80859 10 11.7187 10 15.3086C10 18.8985 12.9101 21.8086 16.5 21.8086C20.0899 21.8086 23 18.8985 23 15.3086C23 11.7187 20.0899 8.80859 16.5 8.80859Z" fill="#9FE870"/>
<path fill-rule="evenodd" clip-rule="evenodd" d="M15.5 17.8086V12.8086H17.5V17.8086H15.5Z" fill="#223D0D"/>
<path fill-rule="evenodd" clip-rule="evenodd" d="M19 16.3086H14V14.3086H19V16.3086Z" fill="#223D0D"/>
</svg>
