<svg width="22" height="22" viewBox="0 0 22 22" fill="none" xmlns="http://www.w3.org/2000/svg">
<path fill-rule="evenodd" clip-rule="evenodd" d="M11.5085 10.6959C11.2006 10.4907 10.7995 10.4907 10.4916 10.6959L6.36657 13.4459C6.11155 13.616 5.95837 13.9021 5.95837 14.2087V20.167C5.95837 20.4773 6.11535 20.7665 6.37554 20.9356C6.63572 21.1047 6.96378 21.1307 7.24734 21.0047L11 19.3368L14.7528 21.0047C15.0363 21.1307 15.3644 21.1047 15.6245 20.9356C15.8847 20.7665 16.0417 20.4773 16.0417 20.167V14.2087C16.0417 13.9021 15.8885 13.616 15.6335 13.4459L11.5085 10.6959Z" fill="#329256"/>
<path fill-rule="evenodd" clip-rule="evenodd" d="M12.4611 2.24321C11.7274 1.2757 10.2729 1.2757 9.53933 2.24321L8.62936 3.44333L7.13728 3.23818C5.9344 3.0728 4.90592 4.10128 5.07131 5.30416L5.27646 6.79623L4.07634 7.70623C3.10883 8.43984 3.10883 9.89433 4.07634 10.6279L5.27646 11.5379L5.07131 13.0301C4.90592 14.2329 5.9344 15.2614 7.13728 15.096L8.62936 14.8908L9.53933 16.091C10.2729 17.0584 11.7274 17.0584 12.4611 16.091L13.3711 14.8908L14.8631 15.096C16.066 15.2614 17.0945 14.2329 16.9291 13.0301L16.724 11.5379L17.9241 10.6279C18.8916 9.89433 18.8916 8.43984 17.9241 7.70623L16.724 6.79623L16.9291 5.30416C17.0945 4.10127 16.066 3.0728 14.8631 3.23818L13.3711 3.44333L12.4611 2.24321Z" fill="#223D0D"/>
</svg>
