<svg width="24" height="24" viewBox="0 0 24 24" fill="none" xmlns="http://www.w3.org/2000/svg">
<path fill-rule="evenodd" clip-rule="evenodd" d="M21 13.5C21.731 12.8176 21.7309 12.8175 21.7307 12.8173L21 13.5ZM21.7307 12.8173C22.0894 13.2015 22.0897 13.7981 21.731 14.1824L21 13.5C21.731 14.1824 21.7304 14.183 21.7303 14.1832L21.7252 14.1885L21.712 14.2025L21.6639 14.2531C21.6224 14.2965 21.5621 14.3589 21.4848 14.4376C21.3301 14.5948 21.1066 14.8175 20.8269 15.0837C20.2686 15.6151 19.4804 16.3259 18.5639 17.0392C17.6505 17.7501 16.5897 18.479 15.4866 19.034C14.3951 19.5831 13.1876 20 12 20C10.8124 20 9.60491 19.5831 8.51338 19.034C7.41025 18.479 6.34954 17.7501 5.43607 17.0392C4.51955 16.3259 3.73145 15.6151 3.17315 15.0837C2.89341 14.8175 2.66992 14.5948 2.51525 14.4376C2.43788 14.3589 2.37764 14.2965 2.33609 14.2531L2.28796 14.2025L2.27476 14.1885L2.27093 14.1844L2.26899 14.1824L3 13.5C2.26899 12.8176 2.26956 12.817 2.26973 12.8168L2.27093 12.8156L2.27476 12.8115L2.28796 12.7975L2.33609 12.7469C2.37764 12.7035 2.43788 12.6411 2.51525 12.5624C2.66992 12.4052 2.89341 12.1825 3.17315 11.9163C3.73145 11.3849 4.51955 10.6741 5.43607 9.96083C6.34954 9.24991 7.41025 8.52099 8.51338 7.96605C9.60491 7.41693 10.8124 7 12 7C13.1876 7 14.3951 7.41693 15.4866 7.96605C16.5897 8.52099 17.6505 9.24991 18.5639 9.96083C19.4804 10.6741 20.2686 11.3849 20.8269 11.9163C21.1066 12.1825 21.3301 12.4052 21.4848 12.5624C21.5621 12.6411 21.6224 12.7035 21.6639 12.7469L21.712 12.7975L21.7252 12.8115L21.7307 12.8173ZM3 13.5C2.26899 14.1824 2.26882 14.1822 2.26899 14.1824C1.91034 13.7981 1.91034 13.2019 2.26899 12.8176L3 13.5Z" fill="#223D0D"/>
<path d="M12 9.5C9.79086 9.5 8 11.2909 8 13.5C8 15.7091 9.79086 17.5 12 17.5C14.2091 17.5 16 15.7091 16 13.5C16 11.2909 14.2091 9.5 12 9.5Z" fill="#9FE870"/>
<path fill-rule="evenodd" clip-rule="evenodd" d="M13 3V6H11V3H13Z" fill="#9FE870"/>
<path fill-rule="evenodd" clip-rule="evenodd" d="M4.20719 4.79291L6.20719 6.79291L4.79297 8.20712L2.79297 6.20712L4.20719 4.79291Z" fill="#9FE870"/>
<path fill-rule="evenodd" clip-rule="evenodd" d="M19.793 4.79291L17.793 6.79291L19.2072 8.20712L21.2072 6.20712L19.793 4.79291Z" fill="#9FE870"/>
</svg>
